<?xml version="1.0"?>
<svg xmlns="http://www.w3.org/2000/svg" id="Layer_5" enable-background="new 0 0 64 64" height="512px" viewBox="0 0 64 64" width="512px" class=""><g><g><g><g><path d="m40 59c-10.477 0-19-8.523-19-19s8.523-19 19-19 19 8.523 19 19-8.523 19-19 19z" fill="#f0bc5e" data-original="#F0BC5E" class="active-path" style="fill:#FFE000" data-old_color="#f0bc5e"/></g></g><g><g><path d="m16 27c-6.065 0-11-4.935-11-11s4.935-11 11-11 11 4.935 11 11-4.935 11-11 11z" fill="#f0bc5e" data-original="#F0BC5E" class="active-path" style="fill:#FFE000" data-old_color="#f0bc5e"/></g></g><g><path d="m47 33.955c0-3.487-2.582-6.374-6-6.871v-2.084h-2v2.073c-3.383.468-6 3.372-6 6.882 0 3.414 2.444 6.299 5.813 6.861l.187.031v10.056c-2.276-.447-4-2.458-4-4.903l-2 .045c0 3.487 2.582 6.374 6 6.871v2.084h2v-2.073c3.383-.468 6-3.372 6-6.882 0-3.414-2.444-6.299-5.813-6.861l-.187-.031v-10.056c2.276.447 4 2.453 4 4.859v.044zm-12 0c0-2.384 1.693-4.379 4-4.849v9.7c-2.324-.457-4-2.468-4-4.851zm10 12.09c0 2.384-1.693 4.379-4 4.849v-9.7c2.324.457 4 2.468 4 4.851z" data-original="#000000" class="" style="fill:#FFFFFF" data-old_color="#000000"/><path d="m49 39h2v2h-2z" data-original="#000000" class="" style="fill:#FFFFFF" data-old_color="#000000"/><path d="m53 39h2v2h-2z" data-original="#000000" class="" style="fill:#FFFFFF" data-old_color="#000000"/><path d="m25 39h2v2h-2z" data-original="#000000" class="" style="fill:#FFFFFF" data-old_color="#000000"/><path d="m29 39h2v2h-2z" data-original="#000000" class="" style="fill:#FFFFFF" data-old_color="#000000"/><path d="m17 11.145v-2.145h-2v2.145c-1.155.366-2 1.435-2 2.709 0 1.088.604 2.066 1.578 2.553l1.949.975c.292.145.473.438.473.764 0 .471-.384.854-.854.854h-.291c-.471 0-.855-.383-.855-.854v-.146h-2v.146c0 1.274.845 2.343 2 2.709v2.145h2v-2.145c1.155-.366 2-1.435 2-2.709 0-1.088-.604-2.066-1.578-2.553l-1.949-.975c-.292-.145-.473-.438-.473-.764 0-.471.384-.854.854-.854h.291c.471 0 .855.383.855.854v.146h2v-.146c0-1.274-.845-2.343-2-2.709z" data-original="#000000" class="" style="fill:#FFFFFF" data-old_color="#000000"/><path d="m21 16h2v2h-2z" data-original="#000000" class="" style="fill:#FFFFFF" data-old_color="#000000"/><path d="m9 16h2v2h-2z" data-original="#000000" class="" style="fill:#FFFFFF" data-old_color="#000000"/><path d="m40 17c-3.316 0-6.467.711-9.317 1.979.203-.984.317-1.979.317-2.979 0-8.271-6.729-15-15-15s-15 6.729-15 15 6.729 15 15 15c1 0 1.995-.114 2.979-.317-1.268 2.85-1.979 6.001-1.979 9.317 0 12.682 10.317 23 23 23s23-10.318 23-23-10.317-23-23-23zm-24 12c-7.168 0-13-5.832-13-13s5.832-13 13-13 13 5.832 13 13c0 1.426-.253 2.846-.73 4.227-3.304 1.968-6.075 4.739-8.043 8.043-1.382.477-2.801.73-4.227.73zm39.516 25.101-1.414-1.413c-.447.496-.918.967-1.414 1.414l1.414 1.413c-3.5 3.184-8.067 5.195-13.102 5.434v-2c-.333.018-.662.051-1 .051s-.667-.033-1-.051v2c-5.035-.239-9.602-2.25-13.102-5.434l1.414-1.413c-.496-.447-.967-.918-1.414-1.414l-1.414 1.413c-3.184-3.5-5.195-8.067-5.434-13.101h2c-.017-.333-.05-.662-.05-1s.033-.667.051-1h-2c.239-5.035 2.25-9.602 5.434-13.101l1.414 1.413c.447-.496.918-.967 1.414-1.414l-1.414-1.413c3.5-3.184 8.067-5.195 13.102-5.434v2c.332-.018.661-.051.999-.051s.667.033 1 .051v-2c5.035.239 9.602 2.25 13.102 5.434l-1.414 1.413c.496.447.967.918 1.414 1.414l1.414-1.413c3.184 3.5 5.195 8.067 5.434 13.101h-2c.017.333.05.662.05 1s-.033.667-.051 1h2c-.238 5.035-2.249 9.602-5.433 13.101z" data-original="#000000" class="" style="fill:#FFFFFF" data-old_color="#000000"/><path d="m3 52c0-.551.448-1 1-1h7c1.654 0 3-1.346 3-3s-1.346-3-3-3h-3c-.552 0-1-.449-1-1s.448-1 1-1h4c1.654 0 3-1.346 3-3s-1.346-3-3-3h-8c-.552 0-1-.449-1-1s.448-1 1-1h11v-2h-11c-1.654 0-3 1.346-3 3s1.346 3 3 3h8c.552 0 1 .449 1 1s-.448 1-1 1h-4c-1.654 0-3 1.346-3 3s1.346 3 3 3h3c.552 0 1 .449 1 1s-.448 1-1 1h-7c-1.654 0-3 1.346-3 3s1.346 3 3 3h13v-2h-13c-.552 0-1-.449-1-1z" data-original="#000000" class="" style="fill:#FFFFFF" data-old_color="#000000"/></g></g></g> </svg>
