<?xml version="1.0"?>
<svg xmlns="http://www.w3.org/2000/svg" id="Layer_1" enable-background="new 0 0 256 256" height="512px" viewBox="0 0 256 256" width="512px" class=""><g><g><g><path d="m74.373 152.761-24.83 24.252v24.354h33.572v27.286c0 .552.448 1 1 1h102.206c.552 0 1-.448 1-1v-10.163h33.572v-41.477l-24.83-24.252c-5.605-5.474-13.128-8.539-20.963-8.539h-79.765c-7.834 0-15.358 3.065-20.962 8.539z" fill="#6bdddd" data-original="#6BDDDD" class="" style="fill:#FFEF29" data-old_color="#6bdddd"/></g><g><path d="m186.321 231.652h-102.206c-1.654 0-3-1.346-3-3v-25.286h-31.572c-1.104 0-2-.896-2-2v-24.354c0-.539.217-1.054.603-1.431l24.83-24.252 1.397 1.431-1.397-1.431c6.014-5.874 13.954-9.108 22.36-9.108h79.764c8.405 0 16.346 3.235 22.36 9.108l24.83 24.252c.385.376.603.892.603 1.431v41.477c0 1.104-.896 2-2 2h-31.572v8.163c0 1.655-1.346 3-3 3zm-101.206-4h100.206v-9.163c0-1.104.896-2 2-2h31.572v-38.634l-24.227-23.664c-5.262-5.139-12.211-7.97-19.565-7.97h-79.766c-7.355 0-14.303 2.831-19.565 7.97l-24.227 23.664v21.512h31.572c1.104 0 2 .896 2 2z" fill="#3762cc" data-original="#3762CC" class="active-path" style="fill:#000000" data-old_color="#3762cc"/></g><g><path d="m186.321 231.652h-102.206c-1.654 0-3-1.346-3-3v-58.34c0-1.104.896-2 2-2s2 .896 2 2v57.34h100.206v-57.34c0-1.104.896-2 2-2s2 .896 2 2v58.34c0 1.655-1.346 3-3 3z" fill="#3762cc" data-original="#3762CC" class="active-path" style="fill:#000000" data-old_color="#3762cc"/></g><g><path d="m163.956 28.634h-57.293c-15.464 0-28 12.536-28 28v22.114c0 28.059 22.747 50.806 50.806 50.806h11.681c28.059 0 50.806-22.747 50.806-50.806v-22.114c0-15.464-12.536-28-28-28z" fill="#4671c6" data-original="#4671C6" class=""/></g><g><path d="m141.15 131.554h-11.681c-29.117 0-52.806-23.689-52.806-52.806v-22.114c0-16.542 13.458-30 30-30h57.293c16.542 0 30 13.458 30 30v22.114c.001 29.117-23.688 52.806-52.806 52.806zm-34.487-100.92c-14.336 0-26 11.664-26 26v22.114c0 26.912 21.895 48.806 48.806 48.806h11.681c26.912 0 48.806-21.895 48.806-48.806v-22.114c0-14.336-11.664-26-26-26z" fill="#3762cc" data-original="#3762CC" class="active-path" style="fill:#000000" data-old_color="#3762cc"/></g><g><path d="m180.899 84.081v-4.269c0-24.951-20.411-45.178-45.589-45.178-25.178 0-45.589 20.227-45.589 45.178v4.269c-7.916-.161-14.197 6.146-14.197 13.769 0 8.14 7.106 14.578 15.401 13.701 4.705 19.988 22.785 34.88 44.385 34.88 21.601 0 39.68-14.893 44.385-34.88 8.283.876 15.401-5.55 15.401-13.701-.001-7.627-6.286-13.93-14.197-13.769z" fill="#f9cfcf" data-original="#F9CFCF" class=""/></g><g><path d="m148.728 114.157c1.351 0 2.373 1.205 2.18 2.542-.404 2.811-1.474 5.485-3.129 7.768-6.444 8.89-18.72 8.593-24.949 0-1.654-2.283-2.725-4.957-3.129-7.768-.192-1.337.83-2.542 2.18-2.542z" fill="#f9a7a7" data-original="#F9A7A7"/></g><g><path d="m158.979 106.143c-3.509 0-6.353-2.844-6.353-6.353v-6.776c0-3.509 2.844-6.353 6.353-6.353 3.509 0 6.353 2.844 6.353 6.353v6.776c-.001 3.509-2.845 6.353-6.353 6.353z" fill="#3762cc" data-original="#3762CC" class="active-path" style="fill:#000000" data-old_color="#3762cc"/></g><g><path d="m111.631 106.143c-3.509 0-6.353-2.844-6.353-6.353v-6.776c0-3.509 2.844-6.353 6.353-6.353 3.509 0 6.353 2.844 6.353 6.353v6.776c0 3.509-2.844 6.353-6.353 6.353z" fill="#3762cc" data-original="#3762CC" class="active-path" style="fill:#000000" data-old_color="#3762cc"/></g><g><path d="m135.31 148.431c-21.667 0-40.315-14.227-45.92-34.802-3.918-.013-7.72-1.458-10.642-4.087-3.319-2.987-5.223-7.249-5.223-11.692 0-4.254 1.681-8.243 4.732-11.233 2.587-2.536 5.892-4.078 9.465-4.451v-2.354c0-26.014 21.348-47.178 47.589-47.178 26.24 0 47.588 21.164 47.588 47.178v2.354c3.573.373 6.877 1.915 9.465 4.451 3.051 2.99 4.731 6.979 4.731 11.233 0 4.444-1.903 8.706-5.222 11.691-2.922 2.629-6.726 4.074-10.644 4.088-5.604 20.575-24.251 34.802-45.919 34.802zm-44.383-38.88c.918 0 1.731.631 1.945 1.542 4.62 19.629 22.071 33.338 42.438 33.338s37.817-13.709 42.438-33.338c.231-.98 1.155-1.64 2.157-1.531 3.391.357 6.78-.733 9.293-2.995 2.477-2.229 3.897-5.406 3.897-8.718 0-3.17-1.254-6.145-3.531-8.376-2.3-2.255-5.386-3.444-8.625-3.394-.54.015-1.056-.194-1.44-.571-.384-.376-.6-.891-.6-1.428v-4.269c0-23.809-19.554-43.178-43.588-43.178-24.035 0-43.589 19.37-43.589 43.178v4.269c0 .538-.216 1.052-.6 1.428s-.916.584-1.44.571c-3.261-.054-6.324 1.139-8.625 3.393-2.277 2.231-3.532 5.207-3.532 8.376 0 3.312 1.421 6.489 3.899 8.719 2.549 2.294 5.854 3.36 9.292 2.993.07-.006.141-.009.211-.009z" fill="#3762cc" data-original="#3762CC" class="active-path" style="fill:#000000" data-old_color="#3762cc"/></g><g><path d="m154.869 78.467h-80.809v-24.948c0-22.067 17.889-39.957 39.957-39.957h40.852c17.923 0 32.452 14.529 32.452 32.452 0 17.923-14.53 32.453-32.452 32.453z" fill="#4671c6" data-original="#4671C6" class=""/></g><g><path d="m154.869 80.467h-80.809c-1.104 0-2-.896-2-2v-24.948c0-23.135 18.822-41.957 41.957-41.957h40.852c18.997 0 34.452 15.455 34.452 34.452s-15.455 34.453-34.452 34.453zm-78.809-4h78.809c16.792 0 30.452-13.661 30.452-30.452s-13.661-30.452-30.452-30.452h-40.852c-20.929 0-37.957 17.027-37.957 37.957z" fill="#3762cc" data-original="#3762CC" class="active-path" style="fill:#000000" data-old_color="#3762cc"/></g><g><path d="m177.291 176.221c-.634-.618-1.428-.931-2.359-.931-2.476 0-2.619 1.057-8.5 10.505-3.776-6.132-5.179-8.571-6.093-9.571-.565-.619-1.365-.933-2.378-.933-.948 0-1.762.312-2.42.928-.665.623-1.016 1.414-1.016 2.287 0 1.65.979 2.829 8.155 13.954v8.27c0 2.9 1.638 4.244 3.638 4.244 1.99 0 3.656-1.383 3.656-4.244v-8.267c7.152-10.973 9.927-13.7 7.317-16.242z" fill="#4671c6" data-original="#4671C6" class=""/></g><g><path d="m232.534 57.048c-3.915-1.049-7.939 1.274-8.988 5.189l-7.186 26.82h-.243l-7.186-26.82c-1.049-3.915-5.073-6.238-8.988-5.189s-6.238 5.073-5.189 8.988l6.364 23.75c-3.805 1.509-6.5 5.214-6.5 9.556v18.63c0 5.68 4.605 10.284 10.284 10.284h22.439c5.68 0 10.285-4.604 10.285-10.284v-18.63c0-4.262-2.593-7.919-6.287-9.478l6.385-23.828c1.049-3.915-1.275-7.939-5.19-8.988z" fill="#f9cfcf" data-original="#F9CFCF" class=""/></g><g><path d="m227.346 130.256h-10.743c-6.771 0-12.28-5.509-12.28-12.28v-18.639c0-6.771 5.509-12.28 12.28-12.28h10.743c6.771 0 12.28 5.509 12.28 12.28v18.639c0 6.772-5.509 12.28-12.28 12.28zm-10.743-39.198c-4.566 0-8.28 3.714-8.28 8.28v18.639c0 4.565 3.714 8.28 8.28 8.28h10.743c4.565 0 8.28-3.714 8.28-8.28v-18.64c0-4.565-3.714-8.28-8.28-8.28h-10.743z" fill="#3762cc" data-original="#3762CC" class="active-path" style="fill:#000000" data-old_color="#3762cc"/></g><g><path d="m209.761 114.536h-15.145v-14.621h15.145c4.037 0 7.31 3.273 7.31 7.31 0 4.038-3.273 7.311-7.31 7.311z" fill="#f9cfcf" data-original="#F9CFCF" class=""/></g><g><path d="m209.761 116.536h-8.636c-1.104 0-2-.896-2-2s.896-2 2-2h8.636c2.928 0 5.311-2.382 5.311-5.311s-2.382-5.311-5.311-5.311h-15.145c-1.104 0-2-.896-2-2s.896-2 2-2h15.145c5.134 0 9.311 4.177 9.311 9.311s-4.177 9.311-9.311 9.311z" fill="#3762cc" data-original="#3762CC" class="active-path" style="fill:#000000" data-old_color="#3762cc"/></g><g><path d="m230.933 127.6c-1.118.417-2.324.656-3.587.656h-22.444c-1.365 0-2.665-.272-3.857-.755l-6.108 61.116c-.503 5.032-.755 10.086-.755 15.143 0 12.041 9.761 21.802 21.802 21.802 12.041 0 21.802-9.761 21.802-21.802 0-5.057-.252-10.111-.755-15.143z" fill="#f9cfcf" data-original="#F9CFCF" class=""/></g><g><path d="m215.984 227.563c-13.125 0-23.802-10.677-23.802-23.802 0-5.103.257-10.265.765-15.342l6.108-61.116c.063-.627.417-1.188.957-1.514.54-.325 1.202-.378 1.785-.141.997.404 2.042.608 3.106.608h22.444c.973 0 1.945-.179 2.888-.53.581-.218 1.23-.152 1.756.176.527.328.871.882.933 1.499l6.098 61.018c.507 5.077.765 10.239.765 15.342 0 13.124-10.678 23.802-23.803 23.802zm-13.186-97.488-5.871 58.742c-.495 4.946-.745 9.974-.745 14.944 0 10.919 8.883 19.802 19.802 19.802s19.802-8.883 19.802-19.802c0-4.971-.25-9.999-.745-14.944l-5.866-58.7c-.606.093-1.217.14-1.829.14h-22.444c-.709 0-1.411-.061-2.104-.182z" fill="#3762cc" data-original="#3762CC" class="active-path" style="fill:#000000" data-old_color="#3762cc"/></g><g><path d="m227.346 130.256h-22.444c-6.773 0-12.284-5.511-12.284-12.284v-18.63c0-4.458 2.36-8.462 6.14-10.633l-5.936-22.155c-.66-2.46-.303-5.02 1.004-7.207s3.394-3.713 5.876-4.299c4.861-1.15 9.902 1.979 11.24 6.97l5.297 19.767 5.297-19.767c1.336-4.991 6.381-8.12 11.239-6.97 2.483.586 4.57 2.113 5.876 4.299 1.307 2.187 1.664 4.747 1.004 7.207l-5.966 22.268c3.655 2.201 5.937 6.165 5.937 10.521v18.635c0 6.77-5.509 12.278-12.28 12.278zm-25.587-71.449c-.377 0-.759.043-1.138.132-1.421.335-2.614 1.208-3.361 2.458s-.951 2.713-.574 4.12l6.364 23.75c.263.98-.25 2.002-1.194 2.377-3.181 1.261-5.237 4.282-5.237 7.697v18.63c0 4.568 3.716 8.284 8.284 8.284h22.444c4.565 0 8.28-3.714 8.28-8.28v-18.633c0-3.339-1.988-6.336-5.065-7.635-.92-.389-1.413-1.396-1.154-2.36l6.385-23.828c.376-1.407.173-2.87-.574-4.12s-1.941-2.123-3.362-2.458c-2.778-.654-5.674 1.189-6.457 4.112l-7.108 26.523c-.234.875-1.026 1.482-1.932 1.482h-.243c-.905 0-1.698-.608-1.932-1.482l-7.107-26.523c-.676-2.526-2.929-4.246-5.319-4.246z" fill="#3762cc" data-original="#3762CC" class="active-path" style="fill:#000000" data-old_color="#3762cc"/></g><g><path d="m135.31 146.431c-7.966 0-15.45-2.031-21.964-5.591v1.982c0 12.119 9.825 21.944 21.944 21.944 12.114 0 21.944-9.818 21.944-21.946 0-.738 0-1.283 0-1.958-6.505 3.546-13.974 5.569-21.924 5.569z" fill="#f9cfcf" data-original="#F9CFCF" class=""/></g><g><path d="m135.29 166.766c-13.203 0-23.944-10.741-23.944-23.943v-1.982c0-.706.373-1.36.979-1.72.608-.36 1.359-.373 1.979-.035 6.4 3.497 13.663 5.345 21.005 5.345 7.326 0 14.576-1.841 20.966-5.325.618-.338 1.372-.324 1.978.036.607.36.979 1.014.979 1.72v1.958c.001 13.203-10.74 23.946-23.942 23.946zm-19.904-22.668c.659 10.405 9.334 18.667 19.903 18.667 10.562 0 19.232-8.253 19.902-18.649-6.206 2.831-13.014 4.314-19.882 4.314-6.883.001-13.706-1.49-19.923-4.332z" fill="#3762cc" data-original="#3762CC" class="active-path" style="fill:#000000" data-old_color="#3762cc"/></g><g><path d="m135.343 133.023c-5.58 0-10.73-2.691-14.131-7.383-1.832-2.527-3.039-5.521-3.489-8.657-.175-1.219.186-2.451.99-3.379.797-.92 1.953-1.448 3.17-1.448h26.845c1.217 0 2.373.528 3.171 1.449.804.928 1.165 2.159.989 3.378-.451 3.136-1.657 6.129-3.489 8.657-3.401 4.692-8.524 7.383-14.056 7.383zm-13.461-16.866c-.024 0-.089 0-.147.068-.032.036-.066.099-.054.19.359 2.496 1.316 4.874 2.769 6.878 2.64 3.642 6.61 5.731 10.893 5.731 4.235 0 8.178-2.089 10.817-5.731 1.452-2.004 2.409-4.382 2.769-6.878.013-.091-.022-.153-.053-.189-.059-.068-.124-.068-.148-.068h-26.846z" fill="#3762cc" data-original="#3762CC" class="active-path" style="fill:#000000" data-old_color="#3762cc"/></g><g><circle cx="77.115" cy="197.438" fill="#e0ebfc" r="45" data-original="#E0EBFC" class=""/></g><g><path d="m77.115 181.853c-1.104 0-2-.896-2-2v-14.25c0-1.104.896-2 2-2s2 .896 2 2v14.25c0 1.105-.896 2-2 2z" fill="#3762cc" data-original="#3762CC" class="active-path" style="fill:#000000" data-old_color="#3762cc"/></g><g><path d="m59.283 194.81c-.205 0-.413-.032-.619-.099l-14.266-4.636c-1.05-.341-1.625-1.469-1.284-2.52s1.471-1.625 2.52-1.284l14.266 4.636c1.05.341 1.625 1.469 1.284 2.52-.274.845-1.059 1.383-1.901 1.383z" fill="#3762cc" data-original="#3762CC" class="active-path" style="fill:#000000" data-old_color="#3762cc"/></g><g><path d="m57.62 227.576c-.404 0-.812-.122-1.165-.375-.897-.645-1.103-1.894-.459-2.791l8.473-11.804c.644-.897 1.894-1.103 2.791-.459.897.645 1.103 1.894.459 2.791l-8.473 11.804c-.391.545-1.004.834-1.626.834z" fill="#3762cc" data-original="#3762CC" class="active-path" style="fill:#000000" data-old_color="#3762cc"/></g><g><path d="m94.949 194.809c-.843 0-1.627-.537-1.902-1.382-.341-1.051.234-2.179 1.284-2.521l14.266-4.635c1.052-.339 2.179.233 2.521 1.284s-.234 2.179-1.284 2.521l-14.266 4.635c-.206.066-.414.098-.619.098z" fill="#3762cc" data-original="#3762CC" class="active-path" style="fill:#000000" data-old_color="#3762cc"/></g><g><path d="m96.624 227.591c-.622 0-1.235-.29-1.626-.834l-8.484-11.82c-.644-.897-.438-2.146.459-2.791.898-.643 2.146-.438 2.791.459l8.484 11.82c.644.897.438 2.146-.459 2.791-.353.254-.761.375-1.165.375z" fill="#3762cc" data-original="#3762CC" class="active-path" style="fill:#000000" data-old_color="#3762cc"/></g><g><path d="m62.39 154.905 14.725 10.698 14.725-10.698c-4.614-1.597-9.568-2.467-14.725-2.467s-10.111.87-14.725 2.467z" fill="#4671c6" data-original="#4671C6" class=""/></g><g><path d="m57.61 225.592-16.041-.56c5.14 6.611 12.082 11.752 20.09 14.681z" fill="#4671c6" data-original="#4671C6" class=""/></g><g><path d="m92.574 239.712c8.007-2.929 14.948-8.069 20.088-14.68l-16.039.56z" fill="#4671c6" data-original="#4671C6" class=""/></g><g><path d="m109.216 188.173 12.897 9.371c.001 0 0 0 .001-.001.021-9.381-2.828-18.095-7.718-25.313z" fill="#4671c6" data-original="#4671C6" class=""/></g><g><path d="m77.115 179.853-17.833 12.956 6.812 20.963h22.042l6.811-20.963z" fill="#4671c6" data-original="#4671C6" class=""/></g><g><path d="m88.136 215.772h-22.042c-.866 0-1.634-.558-1.902-1.382l-6.812-20.963c-.268-.824.026-1.727.727-2.236l17.833-12.956c.701-.509 1.65-.509 2.352 0l17.832 12.956c.701.509.994 1.412.727 2.236l-6.811 20.963c-.27.824-1.038 1.382-1.904 1.382zm-20.589-4h19.136l5.913-18.199-15.481-11.248-15.481 11.248z" fill="#3762cc" data-original="#3762CC" class="active-path" style="fill:#000000" data-old_color="#3762cc"/></g><g><path d="m32.116 197.479 12.808-9.305-5.151-15.853c-4.835 7.174-7.658 15.815-7.658 25.117 0 .013.001.027.001.041z" fill="#4671c6" data-original="#4671C6" class=""/></g><g><path d="m77.115 167.603c-.413 0-.825-.127-1.176-.382l-14.145-10.276c-.894-.649-1.091-1.9-.442-2.794.65-.893 1.899-1.091 2.794-.442l12.969 9.422 12.968-9.422c.893-.648 2.145-.451 2.794.442.649.894.451 2.145-.442 2.794l-14.144 10.276c-.351.255-.764.382-1.176.382z" fill="#3762cc" data-original="#3762CC" class="active-path" style="fill:#000000" data-old_color="#3762cc"/></g><g><path d="m121.491 199.092c-.408 0-.819-.124-1.174-.382l-12.276-8.919c-.701-.509-.994-1.412-.727-2.236l5.018-15.445c.342-1.051 1.472-1.623 2.521-1.284 1.05.341 1.625 1.47 1.284 2.521l-4.569 14.063 11.101 8.065c.894.649 1.091 1.9.442 2.794-.392.538-1.002.823-1.62.823z" fill="#3762cc" data-original="#3762CC" class="active-path" style="fill:#000000" data-old_color="#3762cc"/></g><g><path d="m92.791 240.959c-.183 0-.368-.025-.552-.078-1.062-.304-1.676-1.412-1.371-2.474l3.832-13.367c.239-.833.987-1.417 1.853-1.448l15.233-.532c1.085-.014 2.03.825 2.069 1.929.038 1.104-.825 2.03-1.929 2.069l-13.781.481-3.433 11.971c-.252.878-1.052 1.449-1.921 1.449z" fill="#3762cc" data-original="#3762CC" class="active-path" style="fill:#000000" data-old_color="#3762cc"/></g><g><path d="m61.449 240.984c-.87 0-1.67-.572-1.921-1.449l-3.439-11.994-13.857-.484c-1.104-.039-1.967-.965-1.929-2.069.039-1.104.959-1.964 2.069-1.929l15.309.535c.866.03 1.614.614 1.853 1.447l3.84 13.391c.305 1.062-.309 2.169-1.371 2.474-.186.052-.372.078-.554.078z" fill="#3762cc" data-original="#3762CC" class="active-path" style="fill:#000000" data-old_color="#3762cc"/></g><g><path d="m32.472 199.221c-.618 0-1.228-.286-1.62-.824-.649-.894-.451-2.145.442-2.794l11.278-8.193-4.552-14.007c-.341-1.051.234-2.179 1.284-2.521 1.052-.339 2.179.233 2.521 1.284l5 15.39c.268.824-.026 1.727-.727 2.236l-12.453 9.047c-.354.258-.766.382-1.173.382z" fill="#3762cc" data-original="#3762CC" class="active-path" style="fill:#000000" data-old_color="#3762cc"/></g><g><path d="m77.115 244.438c-25.916 0-47-21.084-47-47s21.084-47 47-47 47 21.084 47 47-21.084 47-47 47zm0-90c-23.71 0-43 19.29-43 43s19.29 43 43 43 43-19.29 43-43-19.29-43-43-43z" fill="#3762cc" data-original="#3762CC" class="active-path" style="fill:#000000" data-old_color="#3762cc"/></g><g><path d="m133.025 198.089v23.891c0 1.311-.71 2.519-1.856 3.157l-6.065 3.375c-1.343.748-2.855 1.14-4.392 1.14h-11.769c-4.612 0-9.147-1.177-13.177-3.42l-.003-.002c-.785-.437-1.675-.647-2.573-.608l-56.32 2.455c-8.166.356-15.554-4.818-18.01-12.614-1.113-3.532-1.113-7.321 0-10.852 2.456-7.797 9.843-12.971 18.01-12.615l56.323 2.456c.897.039 1.788-.171 2.573-.608 4.03-2.243 8.565-3.42 13.177-3.42h11.83c1.547 0 3.069.398 4.419 1.155l5.988 3.359c1.139.639 1.845 1.844 1.845 3.151z" fill="#f9cfcf" data-original="#F9CFCF" class=""/></g><g><path d="m120.711 231.652h-11.769c-4.929 0-9.81-1.264-14.119-3.655-.012-.006-.023-.013-.035-.019-.461-.257-.981-.382-1.513-.357l-56.32 2.456c-9.051.39-17.281-5.367-20.005-14.011-1.242-3.943-1.242-8.112 0-12.054 2.724-8.645 10.963-14.41 20.005-14.012l56.323 2.456c.531.024 1.051-.101 1.514-.358 4.316-2.402 9.209-3.672 14.149-3.672h11.83c1.886 0 3.752.487 5.396 1.41l5.989 3.359c1.768.992 2.867 2.867 2.867 4.895v23.892c0 2.036-1.105 3.915-2.883 4.905l-6.065 3.375c-1.635.909-3.49 1.39-5.364 1.39zm-24.011-7.188c.013.007.025.014.038.021 3.724 2.072 7.944 3.167 12.205 3.167h11.769c1.194 0 2.377-.307 3.419-.888l6.065-3.375c.511-.285.829-.825.829-1.41v-23.892c0-.583-.315-1.122-.824-1.406l-5.988-3.359c-1.048-.588-2.238-.898-3.44-.898h-11.83c-4.261 0-8.481 1.095-12.205 3.167-1.11.617-2.368.911-3.632.858l-56.323-2.456c-7.265-.311-13.835 4.297-16.016 11.218-.994 3.156-.994 6.494 0 9.651 2.181 6.92 8.754 11.539 16.016 11.217l56.32-2.456c1.252-.054 2.497.237 3.597.841z" fill="#3762cc" data-original="#3762CC" class="active-path" style="fill:#000000" data-old_color="#3762cc"/></g></g></g> </svg>
