<?xml version="1.0"?>
<svg xmlns="http://www.w3.org/2000/svg" id="Layer_1" enable-background="new 0 0 256 256" height="512px" viewBox="0 0 256 256" width="512px" class=""><g><g><g><path d="m174.78 28.763h-68.705c-18.544 0-33.577 15.759-33.577 35.198v27.798c0 35.273 27.277 63.867 60.925 63.867h14.007c33.648 0 60.925-28.594 60.925-63.867v-27.798c.002-19.439-15.031-35.198-33.575-35.198z" fill="#4671c6" data-original="#4671C6" class="" style="fill:#FFEF29" data-old_color="#4671c6"/></g><g><path d="m147.432 157.626h-14.007c-34.697 0-62.926-29.548-62.926-65.867v-27.798c0-20.511 15.96-37.198 35.577-37.198h68.704c19.617 0 35.577 16.687 35.577 37.198v27.798c0 36.319-28.228 65.867-62.925 65.867zm-41.356-126.863c-17.412 0-31.577 14.893-31.577 33.198v27.798c0 34.114 26.434 61.867 58.926 61.867h14.007c32.492 0 58.926-27.753 58.926-61.867v-27.798c0-18.306-14.165-33.198-31.577-33.198z" fill="#3762cc" data-original="#3762CC" class="" data-old_color="#3762cc" style="fill:#000000"/></g><g><path d="m211.991 248h-143.126v-41.188c0-16.939 13.731-30.67 30.67-30.67h81.787c16.939 0 30.67 13.731 30.67 30.67v41.188z" fill="#4671c6" data-original="#4671C6" class="" style="fill:#FFEF29" data-old_color="#4671c6"/></g><g><path d="m211.991 250h-143.126c-1.104 0-2-.896-2-2v-41.188c0-18.014 14.655-32.67 32.67-32.67h81.786c18.015 0 32.67 14.656 32.67 32.67v41.188c0 1.104-.895 2-2 2zm-141.126-4h139.126v-39.188c0-15.809-12.861-28.67-28.67-28.67h-81.786c-15.809 0-28.67 12.861-28.67 28.67z" fill="#3762cc" data-original="#3762CC" class="" data-old_color="#3762cc" style="fill:#000000"/></g><g><path d="m140.428 170.161c-9.619 0-18.678-2.358-26.636-6.508v8.17l24.095 18.513c1.498 1.151 3.583 1.15 5.081-.002l24.045-18.51v-8.143c-7.946 4.132-16.986 6.48-26.585 6.48z" fill="#f9cfcf" data-original="#F9CFCF" class=""/></g><g><path d="m140.426 193.196c-1.325 0-2.651-.425-3.758-1.275l-24.095-18.513c-.492-.378-.781-.965-.781-1.586v-8.17c0-.699.365-1.348.963-1.71.599-.362 1.344-.386 1.962-.063 7.88 4.109 16.771 6.282 25.711 6.282 8.922 0 17.796-2.163 25.662-6.255.62-.321 1.362-.298 1.961.065.597.362.962 1.011.962 1.709v8.143c0 .621-.288 1.206-.78 1.585l-24.045 18.51c-1.108.852-2.435 1.278-3.762 1.278zm-24.634-22.359 23.313 17.912c.778.598 1.864.598 2.643-.001l23.265-17.91v-3.965c-7.679 3.467-16.112 5.288-24.585 5.288-8.491 0-16.942-1.829-24.636-5.312z" fill="#3762cc" data-original="#3762CC" class="" data-old_color="#3762cc" style="fill:#000000"/></g><g><path d="m197.755 91.757v-5.368c0-31.376-25.666-56.811-57.327-56.811-31.661 0-57.327 25.435-57.327 56.811v5.368c-9.954-.202-17.852 7.728-17.852 17.314 0 10.236 8.936 18.332 19.366 17.229 5.916 25.135 28.652 43.861 55.813 43.861 27.163 0 49.897-18.728 55.813-43.861 10.416 1.101 19.366-6.979 19.366-17.229 0-9.59-7.904-17.516-17.852-17.314z" fill="#f9cfcf" data-original="#F9CFCF" class=""/></g><g><path d="m170.19 122.728c-4.669 0-8.453-3.785-8.453-8.453v-9.017c0-4.669 3.785-8.453 8.453-8.453 4.669 0 8.453 3.785 8.453 8.453v9.017c.001 4.668-3.784 8.453-8.453 8.453z" fill="#3762cc" data-original="#3762CC" class="" data-old_color="#3762cc" style="fill:#000000"/></g><g><path d="m110.651 122.728c-4.669 0-8.453-3.785-8.453-8.453v-9.017c0-4.669 3.785-8.453 8.453-8.453 4.669 0 8.453 3.785 8.453 8.453v9.017c.001 4.668-3.784 8.453-8.453 8.453z" fill="#3762cc" data-original="#3762CC" class="" data-old_color="#3762cc" style="fill:#000000"/></g><g><path d="m140.428 172.161c-27.146 0-50.489-17.912-57.35-43.765-4.901.068-9.755-1.696-13.432-5.004-4.065-3.659-6.397-8.878-6.397-14.32 0-5.21 2.059-10.096 5.796-13.759 3.28-3.214 7.503-5.125 12.056-5.493v-3.43c0-32.428 26.614-58.811 59.327-58.811s59.327 26.382 59.327 58.811v3.43c4.554.368 8.775 2.279 12.057 5.495 3.737 3.663 5.796 8.548 5.796 13.758 0 5.442-2.331 10.662-6.396 14.319-3.678 3.31-8.509 5.066-13.434 5.006-6.861 25.851-30.205 43.763-57.35 43.763zm-55.811-47.861c.917 0 1.73.631 1.945 1.542 5.864 24.917 28.015 42.319 53.865 42.319s48.002-17.402 53.866-42.319c.231-.981 1.166-1.642 2.157-1.531 4.412.463 8.815-.953 12.085-3.895 3.223-2.9 5.071-7.036 5.071-11.346 0-4.125-1.632-7.997-4.596-10.901-2.991-2.932-6.976-4.481-11.216-4.414-.555.024-1.057-.195-1.44-.571-.384-.376-.601-.891-.601-1.429v-5.368c0-30.223-24.819-54.811-55.327-54.811s-55.325 24.591-55.325 54.813v5.368c0 .538-.217 1.052-.601 1.429-.384.375-.915.598-1.44.571-4.219-.08-8.223 1.48-11.215 4.412-2.964 2.904-4.596 6.776-4.596 10.902 0 4.31 1.849 8.446 5.073 11.347 3.268 2.941 7.67 4.358 12.083 3.894.071-.008.142-.012.212-.012z" fill="#3762cc" data-original="#3762CC" class="" data-old_color="#3762cc" style="fill:#000000"/></g><g><path d="m198.002 235.555h-33.892v-23.035c0-1.755 1.423-3.177 3.177-3.177h27.537c1.755 0 3.177 1.423 3.177 3.177v23.035z" fill="#ffea92" data-original="#FFEA92" class="active-path" style="fill:#FB5252" data-old_color="#ffea92"/></g><g><path d="m142.52 220.853h-4.236c-1.17 0-2.118-.948-2.118-2.118v-27.537h8.473v27.537c0 1.17-.949 2.118-2.119 2.118z" fill="#e0ebfc" data-original="#E0EBFC" class=""/></g><g><path d="m151.649 139.489h-22.457c-1.104 0-2-.896-2-2s.896-2 2-2h22.457c1.104 0 2 .896 2 2s-.895 2-2 2z" fill="#3762cc" data-original="#3762CC" class="" data-old_color="#3762cc" style="fill:#000000"/></g><g><path d="m144.092 165.389h-7.327c-2.729 0-4.942-2.212-4.942-4.942v-6.111h17.211v6.111c-.001 2.729-2.213 4.942-4.942 4.942z" fill="#e0ebfc" data-original="#E0EBFC" class=""/></g><g><path d="m146.827 137.489c-4.632 0-8.168 0-12.799 0l-2.206 16.847h8.605 8.605z" fill="#e0ebfc" data-original="#E0EBFC" class=""/></g><g><path d="m136.589 147.516v-2.648c0-.585.474-1.059 1.059-1.059h5.56c.585 0 1.059.474 1.059 1.059v2.648c0 .585-.474 1.059-1.059 1.059h-5.56c-.585 0-1.059-.474-1.059-1.059z" fill="#4671c6" data-original="#4671C6" class="" style="fill:#FFEF29" data-old_color="#4671c6"/></g><g><path d="m115.395 195.821c-3.938-2.757-9.365-1.8-12.122 2.137l-5.375 7.676v-2.526-41.598c0-3.871-2.974-7.201-6.841-7.383-4.128-.194-7.536 3.095-7.536 7.18v-5.544c0-3.97-3.218-7.188-7.188-7.188-3.97 0-7.188 3.218-7.188 7.188v5.544c0-3.97-3.218-7.188-7.188-7.188-3.97 0-7.188 3.218-7.188 7.188v11.668c0-4.085-3.408-7.374-7.536-7.18-3.866.182-6.841 3.513-6.841 7.383v29.93c.456 7.736 1.143 15.456 2.049 23.151 1.091 12.306 11.398 21.741 23.751 21.741h13.512c8.432 0 16.237-4.454 20.527-11.713l1.851-3.132 15.839-25.82-.007.003c2.265-3.873 1.221-8.898-2.519-11.517z" fill="#f9cfcf" data-original="#F9CFCF" class=""/></g><g><path d="m70.154 236.414c-.198 0-.398-.029-.597-.091-1.055-.329-1.643-1.451-1.313-2.505 3.015-9.654 11.016-17.045 20.881-19.289l.209-.047 6.921-9.985c.628-.907 1.875-1.134 2.783-.504.907.629 1.134 1.875.504 2.783l-7.363 10.624c-.284.411-.713.7-1.2.811l-.967.22c-8.48 1.929-15.358 8.282-17.949 16.581-.268.854-1.057 1.402-1.909 1.402z" fill="#3762cc" data-original="#3762CC" class="" data-old_color="#3762cc" style="fill:#000000"/></g><g><path d="m79.704 250h-13.512c-13.485 0-24.553-10.13-25.742-23.564-.907-7.692-1.6-15.52-2.054-23.209-.003-.04-.004-.079-.004-.118v-29.93c0-5.029 3.842-9.149 8.747-9.38 2.025-.102 3.989.462 5.63 1.591v-4.081c0-5.066 4.122-9.188 9.188-9.188 2.01 0 3.87.648 5.385 1.748.876-4.16 4.574-7.292 8.991-7.292 4.414 0 8.111 3.129 8.99 7.286 1.681-1.222 3.723-1.833 5.827-1.731 4.905.231 8.747 4.352 8.747 9.381v37.78l1.736-2.48c1.64-2.342 4.094-3.905 6.91-4.402 2.815-.497 5.656.134 7.998 1.773 4.485 3.141 5.862 9.274 3.175 14.027-.027.058-.059.115-.093.17l-15.839 25.82-1.834 3.104c-4.625 7.83-13.149 12.695-22.246 12.695zm-37.311-46.95c.45 7.593 1.135 15.323 2.036 22.976 1.011 11.412 10.365 19.974 21.763 19.974h13.512c7.688 0 14.894-4.112 18.805-10.731l1.851-3.132 15.782-25.729c.015-.028.029-.055.046-.082 1.748-2.987.896-6.882-1.939-8.867-1.466-1.027-3.248-1.422-5.009-1.11-1.764.311-3.301 1.29-4.327 2.756l-5.375 7.676c-.502.715-1.409 1.024-2.24.76-.832-.262-1.398-1.034-1.398-1.907v-44.124c0-2.841-2.214-5.257-4.935-5.386-1.434-.061-2.798.44-3.834 1.428-1.036.989-1.607 2.322-1.607 3.755 0 1.104-.896 2-2 2s-2-.896-2-2v-5.544c0-2.861-2.327-5.188-5.188-5.188s-5.188 2.328-5.188 5.188v5.544c0 1.104-.896 2-2 2s-2-.896-2-2c0-2.861-2.327-5.188-5.188-5.188s-5.188 2.328-5.188 5.188v11.667c0 1.104-.896 2-2 2s-2-.896-2-2c0-1.432-.571-2.765-1.607-3.754-1.035-.988-2.395-1.494-3.835-1.428-2.721.128-4.935 2.544-4.935 5.385v29.873z" fill="#3762cc" data-original="#3762CC" class="" data-old_color="#3762cc" style="fill:#000000"/></g><g><path d="m54.77 197.681c-1.104 0-2-.896-2-2v-24.56c0-1.104.896-2 2-2s2 .896 2 2v24.56c0 1.104-.896 2-2 2z" fill="#3762cc" data-original="#3762CC" class="" data-old_color="#3762cc" style="fill:#000000"/></g><g><path d="m69.146 197.681c-1.104 0-2-.896-2-2v-34.373c0-1.104.896-2 2-2s2 .896 2 2v34.373c0 1.104-.896 2-2 2z" fill="#3762cc" data-original="#3762CC" class="" data-old_color="#3762cc" style="fill:#000000"/></g><g><path d="m83.522 197.681c-1.104 0-2-.896-2-2v-34.373c0-1.104.896-2 2-2s2 .896 2 2v34.373c0 1.104-.895 2-2 2z" fill="#3762cc" data-original="#3762CC" class="" data-old_color="#3762cc" style="fill:#000000"/></g><g><path d="m198.002 237.555h-33.892c-1.104 0-2-.896-2-2v-23.035c0-2.855 2.322-5.177 5.178-5.177h27.537c2.854 0 5.177 2.322 5.177 5.177v23.036c0 1.104-.896 1.999-2 1.999zm-31.892-4h29.892v-21.035c0-.649-.528-1.177-1.177-1.177h-27.537c-.649 0-1.178.528-1.178 1.177z" fill="#3762cc" data-original="#3762CC" class="" data-old_color="#3762cc" style="fill:#000000"/></g><g><path d="m201.18 235.555h-40.246c-.585 0-1.059-.474-1.059-1.059v-5.207c0-.585.474-1.059 1.059-1.059h40.246c.585 0 1.059.474 1.059 1.059v5.207c0 .585-.474 1.059-1.059 1.059z" fill="#e0ebfc" data-original="#E0EBFC" class=""/></g><g><path d="m201.18 237.555h-40.246c-1.688 0-3.06-1.372-3.06-3.059v-5.207c0-1.687 1.372-3.059 3.06-3.059h40.246c1.687 0 3.059 1.372 3.059 3.059v5.207c-.001 1.687-1.373 3.059-3.059 3.059zm-39.306-4h38.364v-3.325h-38.364z" fill="#3762cc" data-original="#3762CC" class="" data-old_color="#3762cc" style="fill:#000000"/></g><g><path d="m142.521 222.853h-4.236c-2.271 0-4.118-1.847-4.118-4.118v-27.537c0-1.104.896-2 2-2h8.473c1.104 0 2 .896 2 2v27.537c-.001 2.271-1.849 4.118-4.119 4.118zm-4.355-29.655v25.537c0 .065.053.118.118.118h4.236c.065 0 .118-.053.118-.118v-25.537z" fill="#3762cc" data-original="#3762CC" class="" data-old_color="#3762cc" style="fill:#000000"/></g><g><path d="m167.013 171.823-24.045 18.51c-1.497 1.152-3.582 1.153-5.081.002l-24.095-18.513-14.257 4.319 20.802 25.34c1.425 1.736 3.969 2.03 5.753.666l14.313-10.949 14.339 10.953c1.784 1.363 4.326 1.067 5.75-.667l20.804-25.342z" fill="#e0ebfc" data-original="#E0EBFC" class=""/></g><g><path d="m157.274 205.016c-1.307 0-2.624-.417-3.748-1.276l-13.123-10.024-13.099 10.02c-2.654 2.03-6.395 1.598-8.514-.985l-20.802-25.34c-.424-.517-.562-1.21-.368-1.85s.694-1.14 1.334-1.333l14.257-4.319c.616-.187 1.285-.065 1.799.328l24.095 18.513c.778.598 1.864.598 2.643-.001l24.045-18.51c.511-.394 1.181-.515 1.799-.33l14.283 4.319c.64.193 1.141.694 1.335 1.333s.056 1.333-.368 1.85l-20.805 25.342c-1.222 1.488-2.982 2.263-4.763 2.263zm-12.861-13.271 11.542 8.817c.935.713 2.245.561 2.99-.347l18.903-23.026-10.431-3.154zm-41.432-14.557 18.901 23.025c.744.906 2.057 1.061 2.992.346l11.542-8.83-23.028-17.694z" fill="#3762cc" data-original="#3762CC" class="" data-old_color="#3762cc" style="fill:#000000"/></g><g><path d="m144.092 167.389h-7.327c-3.828 0-6.942-3.114-6.942-6.941v-6.112c0-.087.006-.173.017-.26l2.206-16.847c.131-.996.979-1.74 1.983-1.74h12.799c1.004 0 1.853.745 1.983 1.74l2.206 16.847c.011.086.017.173.017.26v6.112c-.001 3.827-3.115 6.941-6.942 6.941zm-10.27-12.923v5.981c0 1.622 1.32 2.941 2.942 2.941h7.327c1.622 0 2.941-1.319 2.941-2.941v-5.981l-1.961-14.977h-9.289z" fill="#3762cc" data-original="#3762CC" class="" data-old_color="#3762cc" style="fill:#000000"/></g><g><path d="m162.618 83.301h-93.753v-28.944c0-25.602 20.755-46.357 46.357-46.357h47.396c20.794 0 37.65 16.857 37.65 37.65 0 20.794-16.857 37.651-37.65 37.651z" fill="#4671c6" data-original="#4671C6" class="" style="fill:#FFEF29" data-old_color="#4671c6"/></g><g><path d="m162.618 85.301h-93.753c-1.104 0-2-.896-2-2v-28.944c0-26.664 21.693-48.357 48.357-48.357h47.396c21.863 0 39.65 17.787 39.65 39.65s-17.787 39.651-39.65 39.651zm-91.753-4h91.753c19.657 0 35.65-15.993 35.65-35.65s-15.993-35.651-35.65-35.651h-47.396c-24.458 0-44.356 19.898-44.356 44.357v26.944z" fill="#3762cc" data-original="#3762CC" class="" data-old_color="#3762cc" style="fill:#000000"/></g></g></g> </svg>
