<?xml version="1.0"?>
<svg xmlns="http://www.w3.org/2000/svg" id="Layer_1" enable-background="new 0 0 256 256" height="512px" viewBox="0 0 256 256" width="512px" class=""><g><g><g><path d="m206.183 177.31-31.561-23.898-17.924 23.671c-.756.999-1.936 1.585-3.189 1.585h-51.024c-1.253 0-2.433-.587-3.189-1.585l-17.924-23.671-31.561 23.898c-.881.667-1.054 1.921-.387 2.802l27.606 36.458c.658.869 1.014 1.929 1.014 3.018 0 .249 0 25.606 0 25.412 0 1.657 1.343 3 3 3h94c1.657 0 3-1.343 3-3 0-.704 0-26.187 0-25.534 0-1.09.356-2.15 1.014-3.018l27.513-36.336c.666-.881.492-2.135-.388-2.802z" fill="#6bdddd" data-original="#6BDDDD" class="" style="fill:#FFEF29" data-old_color="#6bdddd"/></g><g><path d="m101.572 178.669 23.334 22.798c1.746 1.706 4.535 1.704 6.279-.003l23.286-22.795z" fill="#e0ebfc" data-original="#E0EBFC" class=""/></g><g><path d="m50.765 171.9h41.588v5.999h-41.588z" fill="#e0ebfc" transform="matrix(.797 -.604 .604 .797 -91.07 78.659)" data-original="#E0EBFC" class=""/></g><g><path d="m181.434 154.106h5.999v41.588h-5.999z" fill="#e0ebfc" transform="matrix(.604 -.797 .797 .604 -66.339 216.359)" data-original="#E0EBFC" class=""/></g><g><path d="m175.043 250h-94c-2.757 0-5-2.243-5-5v-25.412c0-.649-.216-1.293-.609-1.813l-27.604-36.456c-.645-.852-.92-1.903-.773-2.962.146-1.06.696-1.997 1.549-2.643l31.561-23.897c.88-.668 2.135-.493 2.802.388l17.924 23.671c.375.496.971.792 1.594.792h51.024c.623 0 1.219-.296 1.594-.792l17.924-23.671c.666-.881 1.919-1.056 2.802-.388l31.561 23.897c.853.646 1.403 1.583 1.549 2.643.146 1.059-.129 2.11-.773 2.962l-27.513 36.335c-.393.519-.608 1.161-.608 1.812v25.534c-.004 2.757-2.247 5-5.004 5zm-94.058-93.786-29.968 22.691 27.606 36.457c.915 1.21 1.419 2.711 1.419 4.226v25.413c0 .551.448.999 1 .999h94c.552 0 1-.448 1-1v-25.547c0-.005 0-.009 0-.014.006-1.508.51-2.998 1.419-4.199l27.513-36.335h.001l-29.968-22.691-16.716 22.076c-1.127 1.489-2.915 2.378-4.783 2.378h-51.024c-1.868 0-3.656-.889-4.783-2.378z" fill="#3762cc" data-original="#3762CC" class="active-path" style="fill:#000000" data-old_color="#3762cc"/></g><g><path d="m70.595 137.879-.871-65.411h-20.602c-1.452 0-2.784-.517-3.822-1.375l-10.311 76.42c-.531 3.932.518 7.914 2.916 11.074l13.371 17.619 30.103-22.793-9.973-13.171c-.515-.681-.8-1.509-.811-2.363z" fill="#f9cfcf" data-original="#F9CFCF" class=""/></g><g><path d="m151.546 205.135h-6.305c-.744 0-1.347.603-1.347 1.347v11.634c0 .497.274.954.712 1.188l6.305 3.37c.198.106.417.159.635.159z" fill="#e0ebfc" data-original="#E0EBFC" class=""/></g><g><path d="m152.181 222.674 6.305-3.37c.438-.234.712-.691.712-1.188v-11.634c0-.744-.603-1.347-1.347-1.347h-6.305v17.698c.218 0 .436-.053.635-.159z" fill="#4671c6" data-original="#4671C6" class=""/></g><g><path d="m128.043 174.649c-6.466 0-12.554-1.585-17.904-4.375v8.395l16.333 15.958c.873.853 2.267.852 3.14-.001l16.3-15.956v-8.376c-5.341 2.777-11.417 4.355-17.869 4.355z" fill="#f9cfcf" data-original="#F9CFCF" class=""/></g><g><path d="m166.576 121.949v-3.608c0-21.089-17.252-38.186-38.533-38.186-21.281 0-38.533 17.096-38.533 38.186v3.608c-6.691-.136-11.999 5.194-11.999 11.638 0 6.88 6.006 12.322 13.017 11.581 3.977 16.895 19.259 29.482 37.515 29.482 18.258 0 33.539-12.588 37.515-29.482 7.001.74 13.017-4.691 13.017-11.581 0-6.447-5.312-11.774-11.999-11.638z" fill="#f9cfcf" data-original="#F9CFCF" class=""/></g><g><path d="m128.051 158.288c-2.891 0-5.586-1.047-7.397-2.872-1.395-1.406-2.162-3.186-2.162-5.01 0-1.104.896-2 2-2s2 .896 2 2c0 .773.347 1.532 1.002 2.193 1.049 1.058 2.753 1.688 4.558 1.688h.001c1.814 0 3.466-.615 4.53-1.688.656-.661 1.003-1.42 1.003-2.193 0-1.104.896-2 2-2s2 .896 2 2c0 1.825-.769 3.604-2.163 5.011-1.81 1.824-4.496 2.871-7.369 2.871-.002 0-.002 0-.003 0z" fill="#3762cc" data-original="#3762CC" class="active-path" style="fill:#000000" data-old_color="#3762cc"/></g><g><path d="m148.048 142.351c-2.989 0-5.411-2.423-5.411-5.411v-5.772c0-2.989 2.423-5.411 5.411-5.411 2.989 0 5.411 2.423 5.411 5.411v5.772c0 2.988-2.423 5.411-5.411 5.411z" fill="#3762cc" data-original="#3762CC" class="active-path" style="fill:#000000" data-old_color="#3762cc"/></g><g><path d="m108.028 142.351c-2.989 0-5.411-2.423-5.411-5.411v-5.772c0-2.989 2.423-5.411 5.411-5.411 2.989 0 5.411 2.423 5.411 5.411v5.772c.001 2.988-2.422 5.411-5.411 5.411z" fill="#3762cc" data-original="#3762CC" class="active-path" style="fill:#000000" data-old_color="#3762cc"/></g><g><path d="m128.043 176.648c-18.376 0-34.202-12.014-39.05-29.418-3.304-.067-6.498-1.311-8.965-3.531-2.871-2.583-4.518-6.27-4.518-10.113 0-3.68 1.453-7.13 4.093-9.717 2.17-2.126 4.924-3.445 7.906-3.815v-1.713c0-22.159 18.184-40.187 40.533-40.187s40.533 18.027 40.533 40.187v1.713c2.982.37 5.735 1.689 7.906 3.816 2.64 2.586 4.093 6.036 4.093 9.716 0 3.844-1.646 7.529-4.516 10.112-2.469 2.221-5.663 3.465-8.968 3.532-4.846 17.405-20.671 29.418-39.047 29.418zm-37.514-33.481c.917 0 1.73.631 1.945 1.542 3.871 16.45 18.498 27.939 35.568 27.939s31.696-11.489 35.567-27.939c.231-.98 1.155-1.624 2.157-1.531 2.786.297 5.557-.6 7.616-2.453 2.028-1.825 3.191-4.427 3.191-7.139 0-2.596-1.027-5.031-2.893-6.859-1.885-1.847-4.429-2.847-7.065-2.778-.551-.003-1.057-.195-1.44-.571s-.601-.892-.601-1.429v-3.607c0-19.953-16.389-36.187-36.533-36.187s-36.531 16.233-36.531 36.186v3.607c0 .537-.217 1.053-.601 1.429s-.893.572-1.44.571c-2.679-.091-5.182.933-7.065 2.778-1.865 1.828-2.893 4.264-2.893 6.859 0 2.712 1.164 5.314 3.193 7.141 2.088 1.879 4.796 2.755 7.613 2.451.071-.006.142-.01.212-.01z" fill="#3762cc" data-original="#3762CC" class="active-path" style="fill:#000000" data-old_color="#3762cc"/></g><g><path d="m128.043 176.648c-18.376 0-34.202-12.014-39.05-29.418-3.304-.067-6.498-1.311-8.965-3.531-2.871-2.583-4.518-6.27-4.518-10.113 0-3.68 1.453-7.13 4.093-9.717 2.17-2.126 4.924-3.445 7.906-3.815v-1.713c0-2.498.243-5.034.723-7.536 2.907-12.245 13.656-20.736 26.159-20.736h30.427c7.506 0 14.654 3.614 19.122 9.669.063.085.118.174.166.268 2.966 5.723 4.47 11.892 4.47 18.336v1.713c2.982.37 5.735 1.689 7.906 3.816 2.64 2.586 4.093 6.036 4.093 9.716 0 3.844-1.646 7.529-4.516 10.112-2.469 2.221-5.663 3.465-8.968 3.532-4.847 17.404-20.672 29.417-39.048 29.417zm-37.514-33.481c.917 0 1.73.631 1.945 1.542 3.871 16.45 18.498 27.939 35.568 27.939s31.696-11.489 35.567-27.939c.231-.98 1.155-1.624 2.157-1.531 2.786.297 5.557-.6 7.616-2.453 2.028-1.825 3.191-4.427 3.191-7.139 0-2.596-1.027-5.031-2.893-6.859-1.885-1.847-4.429-2.847-7.065-2.778-.551-.003-1.057-.195-1.44-.571s-.601-.892-.601-1.429v-3.607c0-5.744-1.328-11.245-3.947-16.354-3.723-4.962-9.621-7.919-15.811-7.919h-30.427c-10.642 0-19.791 7.227-22.249 17.574-.414 2.169-.633 4.452-.633 6.698v3.607c0 .537-.217 1.053-.601 1.429s-.893.572-1.44.571c-2.652-.068-5.182.932-7.065 2.778-1.865 1.828-2.893 4.264-2.893 6.859 0 2.712 1.164 5.314 3.193 7.141 2.088 1.879 4.796 2.755 7.613 2.451.074-.006.145-.01.215-.01z" fill="#3762cc" data-original="#3762CC" class="active-path" style="fill:#000000" data-old_color="#3762cc"/></g><g><path d="m82.332 114.053c0 3.21.671 6.263 1.875 9.03 1.596-.754 3.389-1.174 5.303-1.135v-3.608c0-2.449.242-4.84.686-7.16 2.604-10.957 12.442-19.112 24.196-19.112h30.427c7.185 0 13.551 3.487 17.513 8.856 2.707 5.223 4.244 11.14 4.244 17.415v3.608c1.902-.039 3.685.377 5.274 1.122 1.2-2.764 1.869-5.812 1.869-9.017v-11.227c0-7.11-3.275-13.452-8.396-17.609-1.721-13.061-12.89-23.145-26.422-23.145h-1.823c-16.918 0-33.193 5.742-46.91 15.644-3.838 2.77-8.207 4.527-12.871 4.974-1.345.129-2.37 1.259-2.37 2.611v2.519c0 7.1 2.827 13.531 7.405 18.256z" fill="#4671c6" data-original="#4671C6" class=""/></g><g><path d="m84.207 125.084c-.238 0-.477-.042-.704-.128-.506-.19-.914-.578-1.13-1.074-1.354-3.113-2.041-6.42-2.041-9.828v-7.185c-4.782-5.225-7.405-11.957-7.405-19.05v-2.519c0-2.395 1.797-4.373 4.18-4.602 4.217-.404 8.218-1.953 11.892-4.605 14.521-10.481 31.147-16.021 48.081-16.021h1.822c14.06 0 26.084 10.307 28.291 24.103 5.429 4.698 8.526 11.45 8.526 18.651v11.228c0 3.401-.685 6.703-2.033 9.813-.215.496-.622.884-1.128 1.075-.507.19-1.067.169-1.557-.061-1.386-.65-2.859-.983-4.385-.934-.563-.02-1.056-.196-1.44-.571-.384-.377-.6-.892-.6-1.429v-3.607c0-5.744-1.328-11.245-3.947-16.354-3.723-4.962-9.621-7.919-15.811-7.919h-30.427c-10.642 0-19.791 7.227-22.249 17.574-.414 2.169-.633 4.452-.633 6.698v3.607c0 .537-.216 1.052-.6 1.428s-.894.556-1.44.572c-1.529-.043-3.017.286-4.408.944-.269.13-.561.194-.854.194zm52.872-61.012c-16.088 0-31.904 5.278-45.739 15.266-4.258 3.072-8.919 4.87-13.853 5.344-.319.03-.561.297-.561.619v2.519c0 6.321 2.43 12.312 6.842 16.865.361.373.563.872.563 1.392v7.978c0 2.215.346 4.379 1.03 6.454.703-.208 1.42-.358 2.147-.451v-1.716c0-2.498.243-5.034.723-7.536 2.907-12.245 13.656-20.736 26.159-20.736h30.427c7.506 0 14.654 3.614 19.122 9.669.063.085.118.174.166.268 2.966 5.723 4.47 11.892 4.47 18.336v1.716c.717.091 1.423.238 2.116.442.682-2.074 1.026-4.234 1.026-6.445v-11.228c0-6.255-2.79-12.106-7.656-16.056-.396-.322-.655-.784-.722-1.291-1.609-12.204-12.115-21.407-24.439-21.407h-1.821z" fill="#3762cc" data-original="#3762CC" class="active-path" style="fill:#000000" data-old_color="#3762cc"/></g><g><path d="m94.302 54.843-1.541-.919c-8.094-4.829-13.122-13.684-13.122-23.109 0-1.963 1.597-3.561 3.561-3.561.869 0 1.706.317 2.357.891l2.701 2.384c-.022-1.306-.017 1.111-.017-8.752-1.531-.855-3.26-1.32-5.039-1.32-5.712 0-10.359 4.647-10.359 10.358 0 11.806 6.298 22.898 16.437 28.947l14.673 8.754c-3.889-4.098-7.136-8.705-9.651-13.673z" fill="#ffea92" data-original="#FFEA92" class=""/></g><g><path d="m172.795 20.456c-1.766 0-3.482.46-5.005 1.303 0 9.928.005 7.436-.017 8.739l2.666-2.353c.651-.574 1.486-.891 2.356-.891 1.963 0 3.561 1.597 3.561 3.561 0 9.424-5.028 18.279-13.122 23.109l-1.491.889c-2.508 4.961-5.746 9.562-9.621 13.656l14.596-8.707c10.138-6.049 16.436-17.141 16.436-28.947-.001-5.712-4.648-10.359-10.359-10.359z" fill="#ffea92" data-original="#FFEA92" class=""/></g><g><path d="m103.949 70.515c-.351 0-.704-.092-1.023-.282l-14.673-8.753c-10.74-6.408-17.412-18.158-17.412-30.665 0-6.814 5.544-12.358 12.358-12.358 2.09 0 4.17.544 6.014 1.574.633.354 1.025 1.021 1.025 1.746v4.335c-.001 3.622-.001 3.622.007 3.916l.011.467c.014.792-.442 1.518-1.162 1.85-.718.331-1.566.209-2.161-.315l-2.7-2.383c-.286-.253-.653-.392-1.034-.392-.86 0-1.561.7-1.561 1.561 0 8.725 4.654 16.921 12.147 21.391l1.542.92c.325.194.588.477.759.814 2.433 4.806 5.566 9.246 9.315 13.199.688.725.734 1.846.11 2.626-.391.488-.972.749-1.562.749zm-20.75-48.059c-4.608 0-8.358 3.75-8.358 8.358 0 11.106 5.925 21.54 15.461 27.229l5.389 3.215c-1.05-1.616-2.021-3.283-2.907-4.993l-1.048-.625c-8.695-5.188-14.098-14.701-14.098-24.826 0-3.066 2.494-5.561 5.561-5.561 1.086 0 2.141.316 3.04.904 0-.016 0-.031 0-.047v-3.074c-.971-.381-2.005-.58-3.04-.58z" fill="#3762cc" data-original="#3762CC" class="active-path" style="fill:#000000" data-old_color="#3762cc"/></g><g><path d="m152.122 70.469c-.59 0-1.17-.261-1.562-.75-.625-.779-.578-1.899.108-2.625 3.737-3.949 6.863-8.385 9.288-13.184.171-.338.435-.621.76-.814l1.49-.89c7.494-4.471 12.148-12.667 12.148-21.392 0-.86-.7-1.561-1.561-1.561-.381 0-.747.139-1.032.391l-2.667 2.354c-.595.525-1.441.646-2.161.316-.719-.332-1.175-1.058-1.162-1.85l.012-.464c.007-.272.007-.272.006-3.755v-4.486c0-.728.396-1.397 1.032-1.75 1.836-1.016 3.901-1.553 5.974-1.553 6.813 0 12.357 5.544 12.357 12.358 0 12.506-6.671 24.256-17.411 30.665l-14.596 8.707c-.319.191-.672.283-1.023.283zm11.139-14.234c-.885 1.709-1.854 3.374-2.901 4.99l5.333-3.182c9.536-5.69 15.46-16.124 15.46-27.229 0-4.608-3.749-8.358-8.357-8.358-1.021 0-2.043.195-3.006.569v3.11c.892-.572 1.934-.882 3.006-.882 3.066 0 5.561 2.494 5.561 5.561 0 10.125-5.402 19.638-14.099 24.826z" fill="#3762cc" data-original="#3762CC" class="active-path" style="fill:#000000" data-old_color="#3762cc"/></g><g><path d="m168.76 14.938h-81.03c-1.916 0-3.469-1.553-3.469-3.469 0-1.916 1.553-3.469 3.469-3.469h81.03c1.916 0 3.469 1.553 3.469 3.469 0 1.916-1.553 3.469-3.469 3.469z" fill="#ffea92" data-original="#FFEA92" class=""/></g><g><path d="m137.264 93.319h-9.019-9.019l-11.755 9.547c-1.559 1.266-.664 3.788 1.344 3.788h3.493 15.936 15.936 3.493c2.008 0 2.903-2.522 1.344-3.788z" fill="#ffea92" data-original="#FFEA92" class=""/></g><g><path d="m88.239 14.938v14.63c0 21.551 12.478 41.313 32.375 51.277h7.4 7.4c19.897-9.964 32.375-29.727 32.375-51.277v-14.63z" fill="#ffea92" data-original="#FFEA92" class=""/></g><g><path d="m135.414 80.844h-7.4-7.4c-.139-.07-.273-.144-.411-.215l-.976 12.689h18.038l-1.308-12.757c-.183.094-.36.192-.543.283z" fill="#ffea92" data-original="#FFEA92" class=""/></g><g><path d="m168.761 16.938h-81.031c-3.016 0-5.469-2.453-5.469-5.469s2.454-5.469 5.469-5.469h81.03c3.016 0 5.469 2.453 5.469 5.469s-2.453 5.469-5.468 5.469zm-81.031-6.938c-.81 0-1.469.659-1.469 1.469s.659 1.469 1.469 1.469h81.03c.81 0 1.469-.659 1.469-1.469s-.659-1.469-1.468-1.469z" fill="#3762cc" data-original="#3762CC" class="active-path" style="fill:#000000" data-old_color="#3762cc"/></g><g><path d="m147.675 108.654h-38.859c-1.772 0-3.301-1.079-3.894-2.75-.594-1.671-.087-3.473 1.289-4.591l11.755-9.547c.356-.289.802-.447 1.261-.447h18.037c.459 0 .904.158 1.261.447l11.756 9.547c1.376 1.117 1.882 2.919 1.289 4.59s-2.123 2.751-3.895 2.751zm-27.738-13.335-11.204 9.1c-.042.034-.072.059-.041.147s.068.088.124.088h38.859c.055 0 .094 0 .125-.089.031-.088.003-.111-.041-.146l-11.205-9.1z" fill="#3762cc" data-original="#3762CC" class="active-path" style="fill:#000000" data-old_color="#3762cc"/></g><g><path d="m135.414 82.845h-14.8c-.311 0-.617-.072-.896-.212-20.651-10.341-33.48-30.675-33.48-53.065v-14.63c0-1.104.896-2 2-2h79.551c1.104 0 2 .896 2 2v14.63c0 22.391-12.828 42.725-33.479 53.065-.279.139-.585.212-.896.212zm-14.323-4h13.847c19.042-9.723 30.852-28.562 30.852-49.277v-12.63h-75.552v12.63c0 20.714 11.81 39.554 30.853 49.277z" fill="#3762cc" data-original="#3762CC" class="active-path" style="fill:#000000" data-old_color="#3762cc"/></g><g><path d="m137.264 95.319h-18.037c-.557 0-1.089-.232-1.468-.641-.378-.409-.569-.957-.526-1.513l.976-12.689c.051-.666.432-1.263 1.014-1.59.581-.326 1.288-.343 1.882-.042h13.82l.115-.061c.587-.303 1.288-.297 1.869.019.582.314.97.896 1.037 1.555l1.308 12.758c.058.563-.125 1.124-.505 1.544s-.92.66-1.485.66zm-15.878-4h13.662l-.868-8.475h-12.142z" fill="#3762cc" data-original="#3762CC" class="active-path" style="fill:#000000" data-old_color="#3762cc"/></g><g><path d="m127.997 21.346c-13.362 0-24.233 10.871-24.233 24.233s10.871 24.233 24.233 24.233 24.233-10.871 24.233-24.233-10.871-24.233-24.233-24.233zm1.398 8.792 6.284-4.565c3.907 1.505 7.264 4.122 9.683 7.462l-2.187 6.732-5.884 1.912-7.896-5.736zm-9.081-4.565 6.284 4.565v5.805l-7.897 5.737-5.929-1.914-2.173-6.687c2.422-3.361 5.791-5.994 9.715-7.506zm-9.623 32.634c-2.461-3.363-3.963-7.465-4.111-11.907l5.33-3.872 5.929 1.914 3.017 9.285-3.456 4.814zm24.008 7.728c-2.11.697-4.362 1.079-6.702 1.079s-4.591-.382-6.701-1.078l-1.665-5.805 3.492-4.864h9.748l3.493 4.864zm3.896-7.495-3.457-4.814 3.018-9.286 5.884-1.912 5.373 3.904c-.154 4.429-1.656 8.519-4.11 11.874z" fill="#eaa97d" data-original="#EAA97D"/></g><g><path d="m128.041 197.256c-1.074 0-2.148-.4-2.967-1.2l-16.333-15.956c-.386-.376-.603-.893-.603-1.431v-8.395c0-.699.365-1.348.963-1.71.6-.364 1.344-.387 1.962-.063 5.204 2.713 11.075 4.147 16.979 4.147 5.976 0 11.677-1.39 16.946-4.131.62-.321 1.363-.297 1.961.064.597.363.962 1.011.962 1.71v8.377c0 .538-.217 1.053-.601 1.43l-16.3 15.956c-.818.8-1.894 1.201-2.969 1.202zm-15.902-19.429 15.731 15.368c.096.094.248.094.344 0l15.698-15.367v-4.389c-4.994 2.106-10.421 3.209-15.869 3.209-5.462 0-10.899-1.107-15.904-3.224z" fill="#3762cc" data-original="#3762CC" class="active-path" style="fill:#000000" data-old_color="#3762cc"/></g><g><path d="m49.122 72.469h25.444c3.813 0 6.903-3.091 6.903-6.903v-27.109c0-3.813-3.091-6.903-6.903-6.903h-25.444c-3.314 0-6 2.686-6 6v28.915c0 3.313 2.686 6 6 6z" fill="#f9cfcf" data-original="#F9CFCF" class=""/></g><g><path d="m205.545 72.469h-25.444c-3.813 0-6.903-3.091-6.903-6.903v-27.109c0-3.813 3.091-6.903 6.903-6.903h25.444c3.314 0 6 2.686 6 6v28.915c0 3.313-2.687 6-6 6z" fill="#f9cfcf" data-original="#F9CFCF" class=""/></g><g><path d="m205.545 74.469h-25.444c-4.909 0-8.902-3.994-8.902-8.903v-27.109c0-4.909 3.993-8.903 8.902-8.903h25.444c4.411 0 8 3.589 8 8v28.915c0 4.411-3.589 8-8 8zm-25.444-40.915c-2.703 0-4.902 2.199-4.902 4.903v27.108c0 2.704 2.199 4.903 4.902 4.903h25.444c2.206 0 4-1.794 4-4v-28.914c0-2.206-1.794-4-4-4z" fill="#3762cc" data-original="#3762CC" class="active-path" style="fill:#000000" data-old_color="#3762cc"/></g><g><path d="m49.122 72.469h25.444c3.813 0 6.903-3.091 6.903-6.903v-27.109c0-3.813-3.091-6.903-6.903-6.903h-25.444c-3.314 0-6 2.686-6 6v28.915c0 3.313 2.686 6 6 6z" fill="#f9cfcf" data-original="#F9CFCF" class=""/></g><g><path d="m51.278 178.205c-.604 0-1.202-.272-1.595-.791l-13.371-17.618c-2.736-3.605-3.91-8.063-3.306-12.55l10.311-76.42c.098-.72.577-1.33 1.254-1.595.675-.267 1.442-.144 2.003.321.725.6 1.606.916 2.548.916h20.603c1.094 0 1.985.879 2 1.974l.87 65.41v-.001c.006.424.149.843.405 1.18l9.974 13.174c.667.881.493 2.135-.388 2.802l-30.103 22.793c-.361.273-.785.405-1.205.405zm-4.373-104.051-9.934 73.627c-.463 3.432.435 6.84 2.526 9.597l12.164 16.026 26.915-20.38-8.766-11.577c-.767-1.011-1.199-2.269-1.217-3.541 0 0 0 0 0-.001l-.844-63.437h-18.627c-.754.001-1.501-.107-2.217-.314z" fill="#3762cc" data-original="#3762CC" class="active-path" style="fill:#000000" data-old_color="#3762cc"/></g><g><path d="m74.565 74.469h-25.443c-4.411 0-8-3.589-8-8v-28.915c0-4.411 3.589-8 8-8h25.443c4.909 0 8.903 3.994 8.903 8.903v27.108c.001 4.91-3.993 8.904-8.903 8.904zm-25.443-40.915c-2.206 0-4 1.794-4 4v28.915c0 2.206 1.794 4 4 4h25.443c2.704 0 4.903-2.199 4.903-4.903v-27.109c0-2.704-2.199-4.903-4.903-4.903z" fill="#3762cc" data-original="#3762CC" class="active-path" style="fill:#000000" data-old_color="#3762cc"/></g><g><path d="m221.011 147.513-10.484-77.702c-1.077 1.603-2.906 2.657-4.982 2.657h-19.269l-.87 65.411c-.011.854-.295 1.681-.811 2.361l-9.973 13.171 30.103 22.793 13.371-17.619c2.397-3.158 3.446-7.14 2.915-11.072z" fill="#f9cfcf" data-original="#F9CFCF" class=""/></g><g><path d="m204.723 178.205c-.42 0-.844-.132-1.205-.405l-30.104-22.793c-.881-.667-1.055-1.921-.388-2.802l9.973-13.172c.257-.339.4-.758.406-1.182l.87-65.409c.015-1.095.906-1.974 2-1.974h19.27c1.334 0 2.576-.663 3.323-1.773.464-.688 1.303-1.019 2.113-.832.809.189 1.417.857 1.528 1.681l10.483 77.702c.604 4.487-.569 8.944-3.306 12.55l-13.37 17.618c-.391.519-.989.791-1.593.791zm-27.3-25.181 26.916 20.38 12.163-16.026c2.092-2.757 2.989-6.165 2.526-9.597l-9.998-74.11c-1.07.518-2.259.798-3.485.798h-17.296l-.844 63.437c-.018 1.273-.45 2.531-1.218 3.544z" fill="#3762cc" data-original="#3762CC" class="active-path" style="fill:#000000" data-old_color="#3762cc"/></g><g><path d="m246.586 25.176-10.135 10.135c-.781.781-2.047.781-2.828 0l-4.543-4.543c-.781-.781-.781-2.047 0-2.828l10.135-10.135c.781-.781 2.047-.781 2.828 0l4.543 4.543c.781.781.781 2.047 0 2.828z" fill="#f9a7a7" data-original="#F9A7A7" class=""/></g><g><path d="m26.921 65.176-10.136 10.135c-.781.781-2.047.781-2.828 0l-4.543-4.543c-.781-.781-.781-2.047 0-2.828l10.135-10.135c.781-.781 2.047-.781 2.828 0l4.543 4.543c.782.781.782 2.047.001 2.828z" fill="#6bdddd" data-original="#6BDDDD" class="" style="fill:#FFEF29" data-old_color="#6bdddd"/></g><g><path d="m46.921 205.176-10.135 10.135c-.781.781-2.047.781-2.828 0l-4.543-4.543c-.781-.781-.781-2.047 0-2.828l10.135-10.135c.781-.781 2.047-.781 2.828 0l4.543 4.543c.781.781.781 2.047 0 2.828z" fill="#f9a7a7" data-original="#F9A7A7" class=""/></g><g><path d="m246.586 105.176-10.135 10.135c-.781.781-2.047.781-2.828 0l-4.543-4.543c-.781-.781-.781-2.047 0-2.828l10.135-10.135c.781-.781 2.047-.781 2.828 0l4.543 4.543c.781.781.781 2.047 0 2.828z" fill="#6bdddd" data-original="#6BDDDD" class="" style="fill:#FFEF29" data-old_color="#6bdddd"/></g></g></g> </svg>
